<?xml version="1.0" encoding="UTF-8" standalone="no"?><!-- Generator: Gravit.io --><svg xmlns="http://www.w3.org/2000/svg" xmlns:xlink="http://www.w3.org/1999/xlink" style="isolation:isolate" viewBox="0 0 889.59 894.508" width="889.59pt" height="894.508pt"><defs><clipPath id="_clipPath_BsaZS3TNnS5BzhxGDzqHrWIHILnwKsuJ"><rect width="889.59" height="894.508"/></clipPath></defs><g clip-path="url(#_clipPath_BsaZS3TNnS5BzhxGDzqHrWIHILnwKsuJ)"><path d=" M 225.2 440.3 C 225.2 440.3 333.4 440.2 425.5 440 C 435 440 447.8 436.9 447.7 427.4 C 446.9 324.7 446.1 213 446.076 210.296 C 445.593 155.107 445.2 106.581 445.2 102 C 445.2 102 481.7 101.1 481.7 101.1 C 481.7 106.288 481.745 151.903 481.8 202.9 C 481.8 202.9 481.8 316.3 481.9 408.7 C 481.9 421.5 486 438.6 498.8 438.5 C 599.3 437.7 705.9 436.9 706.403 436.896 C 761.593 436.457 809.537 436.055 813.4 436 C 813.4 436 814.1 468.8 814.1 468.8 C 809.409 468.91 762.27 470.434 708.9 472.2 C 708.9 472.2 596.1 473.2 499.4 471.9 C 486.9 471.7 483.1 488.5 483.3 500.9 C 484.6 590.6 485.9 698.3 485.9 698.3 C 486.617 747.807 487.29 791.988 487.4 796.9 C 487.4 796.9 453.7 798.1 453.7 798.1 C 453.645 794.126 452.973 747.929 452.2 695 C 452.2 695 450.7 591 449.3 495.1 C 449.1 485.3 445.8 472.3 436.1 472.5 C 334.8 474.3 228.6 476 227.284 476.023 C 172.101 477.004 124.522 477.845 121.1 477.9 C 121.1 477.9 122.6 440.5 122.6 440.5 C 128.395 440.5 174.369 440.41 225.2 440.3 Z " fill="rgb(255,255,255)"/><path d=" M 514.445 434.204 C 514.445 434.204 488.745 411.204 488.745 411.204 C 492.774 407.065 524.767 374.444 560.145 338.404 C 560.145 338.404 641.345 257.304 705.845 192.404 C 707.945 190.304 733.745 212.904 731.145 215.504 C 668.145 279.604 583.045 364.604 583.045 364.604 C 548.219 399.982 517.48 431.169 514.445 434.204 Z " fill="rgb(255,255,255)"/><text transform="matrix(1,0,0,1,420,88.3)" style="font-family:'Helvetica';font-weight:700;font-size:110px;font-style:normal;fill:#ffffff;stroke:none;">N</text><text transform="matrix(1,0,0,1,710,188.3)" style="font-family:'Helvetica';font-weight:700;font-size:110px;font-style:normal;fill:#ffffff;stroke:none;">NE</text><text transform="matrix(1,0,0,1,820,488.3)" style="font-family:'Helvetica';font-weight:700;font-size:110px;font-style:normal;fill:#ffffff;stroke:none;">E</text><text transform="matrix(1,0,0,1,1.5,503.3)" style="font-family:'Helvetica';font-weight:700;font-size:110px;font-style:normal;fill:#ffffff;stroke:none;">W</text><text transform="matrix(1,0,0,1,50,188.3)" style="font-family:'Helvetica';font-weight:700;font-size:110px;font-style:normal;fill:#ffffff;stroke:none;">NW</text><text transform="matrix(1,0,0,1,60,803.3)" style="font-family:'Helvetica';font-weight:700;font-size:110px;font-style:normal;fill:#ffffff;stroke:none;">SW</text><text transform="matrix(1,0,0,1,715,803.3)" style="font-family:'Helvetica';font-weight:700;font-size:110px;font-style:normal;fill:#ffffff;stroke:none;">SE</text><text transform="matrix(1,0,0,1,441,890.2)" style="font-family:'Helvetica';font-weight:700;font-size:110px;font-style:normal;fill:#ffffff;stroke:none;">S</text><path d=" M 413.577 434.204 C 413.577 434.204 439.277 411.204 439.277 411.204 C 435.248 407.065 403.254 374.444 367.877 338.404 C 367.877 338.404 286.677 257.304 222.177 192.404 C 220.077 190.304 194.277 212.904 196.877 215.504 C 259.877 279.604 344.977 364.604 344.977 364.604 C 379.803 399.982 410.541 431.169 413.577 434.204 Z " fill="rgb(255,255,255)"/><path d=" M 514.445 477.8 C 514.445 477.8 488.745 500.8 488.745 500.8 C 492.774 504.939 524.767 537.56 560.145 573.6 C 560.145 573.6 641.345 654.7 705.845 719.6 C 707.945 721.7 733.745 699.1 731.145 696.5 C 668.145 632.4 583.045 547.4 583.045 547.4 C 548.219 512.022 517.48 480.836 514.445 477.8 Z " fill="rgb(255,255,255)"/><path d=" M 413.577 477.8 C 413.577 477.8 439.277 500.8 439.277 500.8 C 435.248 504.939 403.254 537.56 367.877 573.6 C 367.877 573.6 286.677 654.7 222.177 719.6 C 220.077 721.7 194.277 699.1 196.877 696.5 C 259.877 632.4 344.977 547.4 344.977 547.4 C 379.803 512.022 410.541 480.836 413.577 477.8 Z " fill="rgb(255,255,255)"/></g></svg>